<?xml version="1.0" encoding="UTF-8"?>
<svg width="384px" height="102px" viewBox="0 0 384 102" version="1.1" xmlns="http://www.w3.org/2000/svg" xmlns:xlink="http://www.w3.org/1999/xlink">
    <!-- Generator: Sketch 43.2 (39069) - http://www.bohemiancoding.com/sketch -->
    <title>Logo</title>
    <desc>Created with Sketch.</desc>
    <defs></defs>
    <g id="Page-1" stroke="none" stroke-width="1" fill="none" fill-rule="evenodd">
        <g id="01_Intro" transform="translate(-428.000000, -480.000000)">
            <g id="Logo" transform="translate(428.000000, 480.000000)">
                <polygon id="Fill-1" fill="#96285F" points="0 9.99999997e-05 0 81.2321 40.616 81.2321 60.926 101.5391 60.926 81.2321 81.234 81.2321 81.234 9.99999997e-05"></polygon>
                <path d="M59.7339,42.6835 C58.9449,42.7515 58.2019,42.6945 57.3039,42.4655 L58.5839,57.1135 C53.6719,55.7515 48.5879,55.2885 43.4259,55.7385 C38.2519,56.1885 33.3179,57.5255 28.7129,59.7205 L27.4439,45.1695 C26.5679,45.4785 25.9019,45.6265 25.0839,45.6975 C20.0339,46.1375 15.5659,42.3855 15.1269,37.3335 C14.6869,32.2815 18.4369,27.8135 23.4919,27.3735 L23.4939,27.3735 C24.2829,27.3055 25.0689,27.3355 25.8279,27.4655 C27.0779,27.6805 28.2939,27.7385 29.4369,27.6395 C33.4979,27.2865 37.0499,25.3065 39.4279,22.0795 C40.9949,19.9885 43.3839,18.6605 45.9859,18.4335 C51.0389,17.9955 55.5049,21.7475 55.9469,26.7995 C56.2809,30.6295 54.1359,34.2645 50.7379,35.8915 L54.2519,39.4085 C57.8099,37.1405 60.2109,33.3355 60.6869,29.1235 C63.5099,29.7775 65.7259,32.1905 65.9919,35.2315 C66.3179,39.0115 63.5129,42.3545 59.7339,42.6835 M70.7689,34.8165 C70.2759,29.1615 65.8039,24.7895 60.3609,24.2175 C58.7329,17.6565 52.5139,13.0555 45.5699,13.6595 C41.6159,14.0035 37.9789,16.0235 35.5819,19.2195 C34.0209,21.3375 31.6889,22.6325 29.0209,22.8645 C28.2869,22.9285 27.4839,22.8875 26.6359,22.7415 C25.4699,22.5425 24.2749,22.4945 23.0779,22.5995 L23.0769,22.5995 C15.3919,23.2675 9.6839,30.0635 10.3529,37.7485 C10.9489,44.6195 16.4449,49.9105 23.0979,50.4755 L24.5789,67.5195 L27.8499,65.5995 C32.7519,62.7205 38.1319,61.0115 43.8429,60.5145 C49.5429,60.0185 55.1299,60.7705 60.4489,62.7515 L63.9999,64.0765 L62.5149,47.0035 C67.6889,45.4405 71.2519,40.4115 70.7689,34.8165" id="Fill-2" fill="#FEFEFE"></path>
                <path d="M382.6177,43.8588 C382.3047,43.0008 381.8167,42.2378 381.1497,41.5698 C380.4807,40.8978 379.6327,40.3028 378.6047,39.7688 C377.5717,39.2368 376.3287,38.6978 374.8477,38.1478 C373.9597,37.8428 373.2087,37.5428 372.5877,37.2498 C371.9717,36.9588 371.4777,36.6698 371.0937,36.3758 C370.7217,36.0828 370.4547,35.7698 370.3007,35.4218 C370.1457,35.0808 370.0667,34.6878 370.0667,34.2408 C370.0667,33.3498 370.4637,32.6908 371.2517,32.2618 C372.0387,31.8338 373.0697,31.6188 374.3357,31.6188 C375.7427,31.6188 376.9717,31.7448 378.0387,32.0058 C379.1047,32.2618 379.9797,32.5468 380.6537,32.8548 L381.7987,27.8148 C381.0757,27.5398 379.9927,27.2558 378.5527,26.9668 C377.1127,26.6738 375.6047,26.5268 374.0287,26.5268 C370.9037,26.5268 368.4447,27.2418 366.6267,28.6638 C364.8047,30.0828 363.9017,32.0298 363.9017,34.4978 C363.9017,35.7698 364.0967,36.8408 364.4877,37.7128 C364.8847,38.5838 365.4217,39.3328 366.1047,39.9478 C366.7947,40.5658 367.6047,41.1048 368.5527,41.5698 C369.4937,42.0298 370.5337,42.4688 371.6627,42.8798 C373.5127,43.5658 374.8457,44.2008 375.6477,44.7838 C376.4547,45.3658 376.8587,46.1018 376.8587,46.9908 C376.8587,47.9518 376.4787,48.6318 375.7217,49.0238 C374.9707,49.4188 373.7707,49.6148 372.1207,49.6148 C370.4847,49.6148 369.0157,49.4428 367.7297,49.1008 C366.4847,48.7708 365.4057,48.4208 364.4997,48.0568 L363.3417,53.2178 C363.9257,53.4598 364.9307,53.7718 366.3667,54.1638 C367.8097,54.5558 369.7047,54.7548 372.0697,54.7548 C375.6047,54.7548 378.3177,54.0998 380.2207,52.7788 C382.1287,51.4588 383.0717,49.5128 383.0717,46.9418 C383.0717,45.7398 382.9257,44.7128 382.6177,43.8588 L382.6177,43.8588 Z M361.0547,27.6418 L361.0717,27.5558 C360.7637,27.4518 360.3467,27.3438 359.8357,27.2238 C359.3177,27.1038 358.7927,27.0018 358.2377,26.9138 C357.6887,26.8288 357.1457,26.7618 356.5967,26.7088 C356.0477,26.6588 355.5717,26.6328 355.1557,26.6328 C352.9607,26.6328 350.9687,26.8288 349.1677,27.2238 C347.3667,27.6168 345.8667,28.0338 344.6717,28.4858 L344.6717,54.0898 L350.8887,54.0898 L350.8887,32.5468 C351.1967,32.4408 351.7377,32.3208 352.5107,32.1848 C353.2827,32.0498 354.0097,31.9788 354.6997,31.9788 C355.8977,31.9788 356.9477,32.0728 357.8547,32.2618 C358.7167,32.4438 359.3967,32.6088 359.9017,32.7738 L361.0547,27.6418 Z M321.7887,37.9928 C321.8967,37.2068 322.0837,36.4348 322.3547,35.6808 C322.6317,34.9258 323.0187,34.2578 323.5137,33.6768 C324.0127,33.0948 324.6167,32.6208 325.3357,32.2618 C326.0637,31.8998 326.9017,31.7238 327.8587,31.7238 C328.7807,31.7238 329.5807,31.8848 330.2467,32.2128 C330.9167,32.5368 331.4817,32.9838 331.9387,33.5488 C332.4117,34.1118 332.7627,34.7828 332.9987,35.5538 C333.2377,36.3228 333.3607,37.1378 333.3607,37.9928 L321.7887,37.9928 Z M336.4687,29.9748 C334.3977,27.6758 331.5117,26.5268 327.8077,26.5268 C326.2297,26.5268 324.6867,26.8288 323.1797,27.4278 C321.6677,28.0278 320.3317,28.9178 319.1677,30.1038 C317.9997,31.2838 317.0637,32.7668 316.3637,34.5518 C315.6677,36.3318 315.3127,38.4048 315.3127,40.7708 C315.3127,42.7968 315.5877,44.6538 316.1347,46.3468 C316.6847,48.0478 317.5207,49.5208 318.6497,50.7748 C319.7827,52.0248 321.2297,53.0028 322.9707,53.7028 C324.7217,54.4038 326.7777,54.7548 329.1487,54.7548 C330.0697,54.7548 330.9717,54.7078 331.8667,54.6038 C332.7627,54.5018 333.5947,54.3728 334.3617,54.2188 C335.1357,54.0628 335.8177,53.8898 336.4197,53.7028 C337.0127,53.5178 337.4717,53.3388 337.8217,53.1678 L336.7027,48.1968 C336.0207,48.4588 335.1357,48.7098 334.0527,48.9438 C332.7977,49.2228 331.4217,49.3568 329.9137,49.3568 C327.3377,49.3568 325.3837,48.7668 324.0277,47.5838 C322.6717,46.4038 321.9127,44.7328 321.7337,42.5718 L339.4787,42.5718 C339.5107,42.2288 339.5347,41.8418 339.5527,41.4148 C339.5697,40.9868 339.5797,40.5998 339.5797,40.2578 C339.5797,35.6998 338.5477,32.2698 336.4687,29.9748 L336.4687,29.9748 Z M278.2867,49.4108 C277.2977,49.6148 275.8357,49.7188 273.9187,49.7188 C272.3477,49.7188 271.0967,49.4368 270.1677,48.8678 C269.2377,48.3018 268.7807,47.2858 268.7807,45.8128 C268.7807,45.0558 268.9507,44.4308 269.2867,43.9318 C269.6367,43.4368 270.0877,43.0498 270.6497,42.7788 C271.2167,42.5028 271.8547,42.3148 272.5547,42.2128 C273.2557,42.1068 273.9507,42.0538 274.6387,42.0538 C275.4297,42.0538 276.1487,42.1068 276.8007,42.2128 C277.4477,42.3148 277.9467,42.4188 278.2867,42.5188 L278.2867,49.4108 Z M283.7707,32.8278 C283.4057,31.5058 282.8077,30.3838 281.9637,29.4598 C281.1207,28.5348 280.0107,27.8148 278.5997,27.3008 C277.1977,26.7858 275.4597,26.5268 273.4057,26.5268 C271.6887,26.5268 270.0807,26.6658 268.5677,26.9418 C267.0697,27.2138 265.9297,27.4868 265.1387,27.7588 L266.2467,32.6828 C266.9437,32.4578 267.8047,32.2568 268.8327,32.0828 C270.0297,31.8728 271.3497,31.7738 272.7937,31.7738 C273.8547,31.7738 274.7377,31.9098 275.4367,32.1848 C276.1367,32.4618 276.7087,32.8448 277.1347,33.3428 C277.5657,33.8378 277.8587,34.4148 278.0307,35.0648 C278.2097,35.7158 278.2867,36.4048 278.2867,37.1218 L278.2867,38.1478 C277.4367,37.9438 276.6287,37.7968 275.8777,37.7128 C275.1157,37.6268 274.3997,37.5838 273.7137,37.5838 C272.2377,37.5838 270.8277,37.7258 269.4687,38.0198 C268.1167,38.3108 266.9267,38.7958 265.9007,39.4598 C264.8747,40.1278 264.0617,40.9958 263.4547,42.0538 C262.8497,43.1208 262.5547,44.4208 262.5547,45.9688 C262.5547,47.5778 262.8177,48.9318 263.3547,50.0268 C263.8837,51.1258 264.6187,52.0168 265.5617,52.6988 C266.5057,53.3878 267.6477,53.8818 268.9837,54.1948 C270.3177,54.5018 271.7947,54.6538 273.4057,54.6538 C275.8357,54.6538 278.0247,54.5068 279.9657,54.2188 C281.8997,53.9268 283.3467,53.6758 284.3047,53.4718 L284.3047,37.1708 C284.3047,35.5978 284.1207,34.1478 283.7707,32.8278 L283.7707,32.8278 Z M207.9507,49.4108 C206.9507,49.6148 205.4957,49.7188 203.5757,49.7188 C201.9997,49.7188 200.7447,49.4368 199.8177,48.8678 C198.8967,48.3018 198.4347,47.2858 198.4347,45.8128 C198.4347,45.0558 198.6047,44.4308 198.9487,43.9318 C199.2947,43.4368 199.7477,43.0498 200.3137,42.7788 C200.8767,42.5028 201.5057,42.3148 202.2127,42.2128 C202.9167,42.1068 203.6127,42.0538 204.2927,42.0538 C205.0837,42.0538 205.8047,42.1068 206.4507,42.2128 C207.1047,42.3148 207.5997,42.4188 207.9507,42.5188 L207.9507,49.4108 Z M213.4267,32.8278 C213.0627,31.5058 212.4637,30.3838 211.6187,29.4598 C210.7827,28.5348 209.6617,27.8148 208.2517,27.3008 C206.8507,26.7858 205.1207,26.5268 203.0657,26.5268 C201.3467,26.5268 199.7327,26.6658 198.2287,26.9418 C196.7297,27.2138 195.5877,27.4868 194.7957,27.7588 L195.9007,32.6838 C196.5987,32.4578 197.4627,32.2568 198.4857,32.0828 C199.6837,31.8728 201.0037,31.7738 202.4487,31.7738 C203.5057,31.7738 204.3887,31.9098 205.0957,32.1848 C205.7967,32.4618 206.3617,32.8448 206.7887,33.3428 C207.2167,33.8378 207.5207,34.4148 207.6887,35.0648 C207.8617,35.7158 207.9507,36.4048 207.9507,37.1218 L207.9507,38.1478 C207.0877,37.9438 206.2827,37.7968 205.5307,37.7128 C204.7777,37.6268 204.0547,37.5838 203.3707,37.5838 C201.8987,37.5838 200.4847,37.7258 199.1247,38.0198 C197.7767,38.3108 196.5837,38.7958 195.5527,39.4598 C194.5277,40.1278 193.7107,40.9958 193.1087,42.0538 C192.5137,43.1208 192.2117,44.4208 192.2117,45.9688 C192.2117,47.5778 192.4817,48.9318 193.0127,50.0268 C193.5427,51.1258 194.2707,52.0168 195.2207,52.6988 C196.1627,53.3878 197.3007,53.8818 198.6417,54.1948 C199.9797,54.5018 201.4507,54.6538 203.0657,54.6538 C205.4957,54.6538 207.6777,54.5068 209.6187,54.2188 C211.5527,53.9268 213.0037,53.6758 213.9627,53.4718 L213.9627,37.1708 C213.9627,35.5978 213.7807,34.1478 213.4267,32.8278 L213.4267,32.8278 Z M173.9777,48.3798 C173.2797,48.6428 172.4837,48.8678 171.5697,49.0498 C170.5437,49.2548 169.4997,49.3568 168.4317,49.3568 C165.5877,49.3568 163.5697,48.5788 162.3667,47.0218 C161.1677,45.4598 160.5687,43.3388 160.5687,40.6648 C160.5687,37.8908 161.2027,35.7408 162.4687,34.2148 C163.7377,32.6908 165.5877,31.9278 168.0257,31.9278 C169.0517,31.9278 170.0207,32.0298 170.9287,32.2368 C171.8357,32.4408 172.6497,32.7018 173.3747,33.0068 L174.5327,27.8478 C172.3177,26.9708 169.9817,26.5268 167.5127,26.5268 C165.4547,26.5268 163.5997,26.8888 161.9547,27.6108 C160.3127,28.3268 158.9187,29.3258 157.7667,30.5918 C156.6187,31.8608 155.7337,33.3618 155.1187,35.0888 C154.5037,36.8198 154.1927,38.6798 154.1927,40.6648 C154.1927,42.6928 154.4687,44.5668 155.0187,46.2978 C155.5587,48.0288 156.3917,49.5208 157.5057,50.7748 C158.6187,52.0248 160.0307,53.0028 161.7257,53.7028 C163.4197,54.4038 165.4197,54.7548 167.7167,54.7548 C169.1887,54.7548 170.6207,54.6208 172.0137,54.3468 C173.3887,54.0738 174.4217,53.7678 175.1107,53.4268 L173.9777,48.3798 Z M120.1977,43.8588 C119.8917,43.0008 119.4017,42.2378 118.7337,41.5698 C118.0687,40.8978 117.2167,40.3028 116.1867,39.7688 C115.1617,39.2368 113.9137,38.6978 112.4367,38.1478 C111.5467,37.8428 110.7927,37.5428 110.1717,37.2498 C109.5547,36.9588 109.0577,36.6698 108.6807,36.3758 C108.3007,36.0828 108.0387,35.7698 107.8837,35.4218 C107.7317,35.0808 107.6497,34.6878 107.6497,34.2408 C107.6497,33.3498 108.0497,32.6908 108.8357,32.2618 C109.6247,31.8338 110.6537,31.6188 111.9197,31.6188 C113.3257,31.6188 114.5647,31.7448 115.6187,32.0058 C116.6867,32.2618 117.5577,32.5468 118.2477,32.8548 L119.3807,27.8148 C118.6627,27.5398 117.5797,27.2558 116.1387,26.9668 C114.7007,26.6738 113.1867,26.5268 111.6127,26.5268 C108.4877,26.5268 106.0207,27.2418 104.2117,28.6638 C102.3917,30.0828 101.4827,32.0298 101.4827,34.4978 C101.4827,35.7698 101.6817,36.8408 102.0757,37.7128 C102.4687,38.5838 103.0117,39.3328 103.6937,39.9478 C104.3777,40.5658 105.1997,41.1048 106.1367,41.5698 C107.0767,42.0298 108.1157,42.4688 109.2497,42.8798 C111.1027,43.5658 112.4277,44.2008 113.2317,44.7838 C114.0347,45.3658 114.4387,46.1018 114.4387,46.9908 C114.4387,47.9518 114.0637,48.6318 113.3047,49.0238 C112.5547,49.4188 111.3547,49.6148 109.7117,49.6148 C108.0667,49.6148 106.6027,49.4428 105.3167,49.1008 C104.0697,48.7708 102.9937,48.4218 102.0877,48.0578 L100.9317,53.2188 C101.5157,53.4618 102.5257,53.7738 103.9457,54.1638 C105.3917,54.5558 107.2937,54.7548 109.6577,54.7548 C113.1867,54.7548 115.9017,54.0998 117.8047,52.7788 C119.7137,51.4588 120.6657,49.5128 120.6657,46.9418 C120.6657,45.7398 120.5117,44.7128 120.1977,43.8588 L120.1977,43.8588 Z M186.9157,54.0898 L186.9157,26.5268 L180.6947,27.6318 L180.6947,54.0898 L186.9157,54.0898 Z M226.9387,54.0898 L226.9387,14.7648 L220.7137,15.8748 L220.7137,54.0898 L226.9387,54.0898 Z M296.6337,37.6878 C297.4157,36.8608 298.2597,35.9808 299.1497,35.0398 C300.0347,34.0968 300.9157,33.1538 301.7707,32.2128 C302.6287,31.2688 303.4387,30.3598 304.2157,29.4838 C304.9827,28.6128 305.6457,27.8508 306.1887,27.1948 L313.5447,27.1948 C311.8357,29.1168 310.0297,31.1058 308.1357,33.1618 C306.2337,35.2188 304.3277,37.2228 302.4117,39.1778 C303.4387,40.0378 304.5187,41.0728 305.6457,42.2908 C306.7747,43.5048 307.8667,44.7968 308.9297,46.1718 C309.9857,47.5408 310.9847,48.9138 311.9037,50.2808 C312.8317,51.6538 313.5987,52.9248 314.2157,54.0898 L307.0207,54.0898 C306.3997,53.0268 305.6887,51.9118 304.8847,50.7458 C304.0827,49.5818 303.2127,48.4488 302.2887,47.3528 C301.3607,46.2578 300.4167,45.2178 299.4547,44.2408 C298.4997,43.2638 297.5527,42.4328 296.6337,41.7488 L296.6337,54.0898 L290.4037,54.0898 L290.4037,15.8718 L296.6337,14.7648 L296.6337,37.6878 Z M252.4117,40.5658 C252.4117,37.9258 251.8847,35.8348 250.8417,34.2948 C249.7947,32.7508 248.1467,31.9788 245.8827,31.9788 C244.8477,31.9788 243.8847,32.1318 242.9777,32.4408 C242.0687,32.7508 241.3357,33.0948 240.7867,33.4718 L240.7867,48.9438 C241.2377,49.0498 241.8087,49.1458 242.5097,49.2308 C243.2117,49.3168 244.0687,49.3568 245.0547,49.3568 C247.3507,49.3568 249.1537,48.5788 250.4597,47.0218 C251.7557,45.4598 252.4117,43.3088 252.4117,40.5658 L252.4117,40.5658 Z M258.7867,40.6648 C258.7867,42.8278 258.4687,44.7708 257.8337,46.5058 C257.2027,48.2348 256.2927,49.7188 255.1047,50.9528 C253.9317,52.1878 252.4947,53.1288 250.8157,53.7808 C249.1367,54.4298 247.2327,54.7548 245.1047,54.7548 C243.0517,54.7548 241.0917,54.6038 239.2207,54.2978 C237.3507,53.9838 235.8047,53.6428 234.5687,53.2678 L234.5687,15.8058 L240.7867,14.6968 L240.7867,28.1228 C241.5097,27.7448 242.3967,27.4018 243.4367,27.0958 C244.4857,26.7858 245.6387,26.6328 246.9117,26.6328 C248.7957,26.6328 250.4837,26.9668 251.9707,27.6328 C253.4647,28.3028 254.7087,29.2558 255.7027,30.4898 C256.6937,31.7238 257.4547,33.2078 257.9877,34.9338 C258.5207,36.6698 258.7867,38.5758 258.7867,40.6648 L258.7867,40.6648 Z M187.6367,19.3298 C187.6367,20.4988 187.2557,21.4188 186.4997,22.1078 C185.7477,22.7958 184.8547,23.1338 183.8287,23.1338 C182.7687,23.1338 181.8547,22.7958 181.0997,22.1078 C180.3467,21.4188 179.9707,20.4988 179.9707,19.3298 C179.9707,18.1318 180.3467,17.1868 181.0997,16.5028 C181.8547,15.8178 182.7687,15.4718 183.8287,15.4718 C184.8547,15.4718 185.7477,15.8178 186.4997,16.5028 C187.2557,17.1868 187.6367,18.1318 187.6367,19.3298 L187.6367,19.3298 Z M143.6477,40.6168 C143.6477,37.9438 143.0697,35.8288 141.9297,34.2658 C140.7777,32.7098 139.1717,31.9278 137.1207,31.9278 C135.0627,31.9278 133.4627,32.7098 132.3127,34.2658 C131.1607,35.8288 130.5877,37.9438 130.5877,40.6168 C130.5877,43.3248 131.1607,45.4718 132.3127,47.0418 C133.4627,48.6198 135.0627,49.4108 137.1207,49.4108 C139.1717,49.4108 140.7777,48.6198 141.9297,47.0418 C143.0697,45.4718 143.6477,43.3248 143.6477,40.6168 L143.6477,40.6168 Z M150.0247,40.6168 C150.0247,42.7458 149.7157,44.6768 149.1007,46.4288 C148.4817,48.1758 147.6087,49.6678 146.4807,50.9038 C145.3457,52.1348 143.9847,53.0938 142.3887,53.7808 C140.7937,54.4668 139.0347,54.8068 137.1207,54.8068 C135.2007,54.8068 133.4507,54.4668 131.8797,53.7808 C130.3007,53.0938 128.9427,52.1348 127.8137,50.9038 C126.6807,49.6678 125.8007,48.1758 125.1677,46.4288 C124.5297,44.6768 124.2157,42.7458 124.2157,40.6168 C124.2157,38.4898 124.5297,36.5648 125.1677,34.8348 C125.8007,33.1028 126.6887,31.6188 127.8377,30.3838 C128.9847,29.1518 130.3477,28.2008 131.9257,27.5318 C133.5037,26.8608 135.2327,26.5268 137.1207,26.5268 C139.0037,26.5268 140.7447,26.8608 142.3357,27.5318 C143.9327,28.2008 145.2977,29.1518 146.4217,30.3838 C147.5547,31.6188 148.4387,33.1028 149.0777,34.8348 C149.7117,36.5648 150.0247,38.4898 150.0247,40.6168 L150.0247,40.6168 Z" id="Fill-4" fill="#2F3744"></path>
            </g>
        </g>
    </g>
</svg>